<svg fill="#ffffff" height="200px" width="200px" version="1.1" id="Capa_1" xmlns="http://www.w3.org/2000/svg" xmlns:xlink="http://www.w3.org/1999/xlink" viewBox="0 0 459.33 459.33" xml:space="preserve" stroke="#ffffff"><g id="SVGRepo_bgCarrier" stroke-width="0"></g><g id="SVGRepo_tracerCarrier" stroke-linecap="round" stroke-linejoin="round"></g><g id="SVGRepo_iconCarrier"> <g> <path d="M329.819,33.233c-0.742-1.772-2.287-3.081-4.157-3.522l-51.689-12.15l-0.609-0.781 c-4.38-5.615-10.129-10.115-16.625-13.013C251.135,1.268,245.169,0,239.01,0h-18.69c-6.159,0-12.125,1.268-17.729,3.768 c-6.496,2.898-12.244,7.397-16.624,13.014l-0.462,0.593l-51.848,12.34c-1.864,0.443-3.404,1.751-4.145,3.519 c-1.867,4.457-45.805,110.973-51.712,267.872c-0.121,3.237,2.349,5.987,5.581,6.211c19.031,1.319,33.049,2.645,33.188,2.658 c3.307,0.3,6.213-2.096,6.538-5.383c0.119-1.204,10.674-106.625,26.563-167.244l7.997,39.258v19.732l-28.633,256.327 c-0.189,1.696,0.353,3.394,1.491,4.666c1.138,1.272,2.765,2,4.472,2h189.34c1.707,0,3.334-0.728,4.472-2 c1.139-1.272,1.681-2.97,1.491-4.666l-28.633-256.327v-19.732l7.997-39.258c15.888,60.619,26.442,166.04,26.562,167.244 c0.324,3.288,3.239,5.691,6.538,5.383c0.139-0.014,14.156-1.339,33.188-2.658c3.232-0.224,5.703-2.974,5.581-6.211 C375.625,144.257,331.687,37.692,329.819,33.233z M314.536,112.356c1.471-18.743,6.726-41.493,10.788-56.996 c11.863,33.854,36.121,114.308,43.004,222.359l-22.679,2.557C340.876,238.964,329.653,153.406,314.536,112.356z M289.665,192.671 h-51.5V180h51.5V192.671z M214.165,166.167c-2.209,0-4,1.791-4,4V172h-41.192l-10.456-51.334l35.583-19.665 c1.071-0.592,1.813-1.643,2.012-2.85l3.434-20.817l13.712,9.1l0,0L255,114.146V172h-16.835v-1.833c0-2.209-1.791-4-4-4H214.165z M230.165,174.167V198.5h-12v-24.333H230.165z M210.165,192.671h-40.5V180h40.5V192.671z M113.678,280.3L91,277.742 c6.905-108.521,31.33-189.17,43.144-222.783c3.973,15.512,9.172,38.479,10.65,57.396C129.675,153.413,118.45,238.996,113.678,280.3 z M290.357,172H263l-0.004-60c0-0.631-0.145-1.268-0.453-1.856l-13.465-25.705l9.08-6.025l3.84,19.847 c0.225,1.164,0.954,2.168,1.992,2.741l36.698,20.281L290.357,172z M317.076,40.012c-3.897,13.531-12.686,46.27-14.576,72.375 l-0.138,0.68l-32.865-18.163l-4.119-21.282l14.494-9.618c0.991-0.658,1.639-1.724,1.766-2.906c0.127-1.184-0.28-2.361-1.109-3.215 l-14.47-14.886l22.177,4.261c1.638,0.317,3.297-0.418,4.167-1.84c0.869-1.421,0.768-3.233-0.258-4.547l-6.474-8.305L317.076,40.012 z M256.812,12.793c3.937,2.284,7.438,5.309,10.244,8.906l12.234,15.694l-24.205-4.65c-1.719-0.332-3.446,0.492-4.275,2.028 c-0.829,1.538-0.565,3.436,0.652,4.688l19.971,20.544l-26.087,17.31l-11.162-21.31L256.812,12.793z M220.319,8h18.69 c3.584,0,7.084,0.535,10.456,1.575l-19.798,37.807L209.864,9.575C213.235,8.535,216.735,8,220.319,8z M202.518,12.793l45.701,87.25 l-60.322-40.04l19.971-20.544c1.218-1.252,1.481-3.149,0.652-4.688c-0.829-1.536-2.556-2.361-4.275-2.028l-24.205,4.65 L192.274,21.7C195.08,18.102,198.581,15.077,202.518,12.793z M166.928,45.418c0.871,1.422,2.537,2.157,4.167,1.84l22.177-4.261 l-14.47,14.886c-0.829,0.854-1.236,2.031-1.109,3.215c0.127,1.183,0.774,2.248,1.766,2.906l12.78,8.481l-3.704,22.452 l-31.691,17.514l-0.013-0.064c-1.892-26.163-10.497-59.002-14.274-72.453l31.104-7.368l-6.475,8.305 C166.16,42.185,166.059,43.997,166.928,45.418z M90.027,295.759c0.148-3.367,0.319-6.702,0.501-10.019l22.248,2.509 c-0.41,3.682-0.746,6.806-1.004,9.246C106.864,297.067,99.22,296.43,90.027,295.759z M169.255,200.671h40.91v1.829 c0,2.209,1.791,4,4,4h20c2.209,0,4-1.791,4-4v-1.829H255V447.33H141.703L169.255,200.671z M317.627,447.33H263V200.671h27.075 L317.627,447.33z M347.557,297.494c-0.258-2.445-0.595-5.577-1.006-9.269l22.25-2.509c0.183,3.325,0.354,6.668,0.502,10.043 C360.109,296.43,352.465,297.067,347.557,297.494z"></path> <circle cx="195.665" cy="116.25" r="4.486"></circle> <circle cx="238.415" cy="116.25" r="4.486"></circle> <circle cx="195.665" cy="157.5" r="4.486"></circle> <circle cx="238.415" cy="157.5" r="4.486"></circle> <circle cx="195.665" cy="212.75" r="4.486"></circle> <circle cx="238.415" cy="212.75" r="4.486"></circle> <circle cx="195.665" cy="257.651" r="4.486"></circle> <circle cx="238.415" cy="257.651" r="4.486"></circle> </g> </g></svg>